<?xml version="1.0" standalone="no"?><!DOCTYPE svg PUBLIC "-//W3C//DTD SVG 1.1//EN" "http://www.w3.org/Graphics/SVG/1.1/DTD/svg11.dtd"><svg t="1571307135976" class="icon" viewBox="0 0 1031 1024" version="1.1" xmlns="http://www.w3.org/2000/svg" p-id="24243" width="30.205078125" height="30" xmlns:xlink="http://www.w3.org/1999/xlink"><defs><style type="text/css"></style></defs><path d="M168.345326 161.505882c-191.28539 191.28539-191.307294 502.563594 0 693.872257 191.31277 191.31277 502.567701 191.31277 693.874995 0.005476 191.290866-191.290866 191.31277-502.56907 0-693.88184C670.913027-29.806888 359.658096-29.806888 168.345326 161.505882L168.345326 161.505882zM763.669904 473.773861c19.373861 0.045176 35.010396 15.733733 34.988492 35.087059-0.023273 9.641754-3.912556 18.388193-10.257797 24.732064-6.368513 6.368513-15.142332 10.286545-24.833369 10.259166l-213.439658-0.32308-1.141733 212.675765c-0.068449 9.589733-3.963209 18.286888-10.259166 24.582845-6.394524 6.394524-15.214888 10.308449-24.975743 10.257797-19.356064-0.125947-34.943316-15.861048-34.844749-35.237647l1.169112-212.400599L266.951872 543.059508c-19.353326-0.024642-35.014503-15.739209-34.993968-35.091166 0.001369-19.37523 15.711829-34.988492 35.091166-34.992599l213.39585 0.324449 1.137626-212.673027c0.076663-19.351957 15.88569-34.965219 35.237647-34.836535 19.377968 0.09446 34.966588 15.877476 34.840642 35.234909l-1.165005 212.396492L763.669904 473.773861 763.669904 473.773861zM763.669904 473.773861" p-id="24244" fill="#ffbf02"></path></svg>