<?xml version="1.0" standalone="no"?><!DOCTYPE svg PUBLIC "-//W3C//DTD SVG 1.1//EN" "http://www.w3.org/Graphics/SVG/1.1/DTD/svg11.dtd"><svg t="1571282764907" class="icon" viewBox="0 0 1024 1024" version="1.1" xmlns="http://www.w3.org/2000/svg" p-id="7663" width="30" height="30" xmlns:xlink="http://www.w3.org/1999/xlink"><defs><style type="text/css"></style></defs><path d="M651.264 860.672H209.92c-8.704 0-15.36-6.656-15.36-15.36V359.936c0-111.104 90.624-201.728 201.728-201.728h441.344c8.704 0 15.36 6.656 15.36 15.36v485.888c-0.512 111.616-91.136 201.216-201.728 201.216z m-425.472-30.72h425.472c93.696 0 170.496-76.288 171.008-170.496V188.928H396.8c-94.208 0-171.008 76.288-171.008 171.008v470.016z" p-id="7664" fill="#cdcdcd"></path><path d="M634.88 668.16H413.184c-13.312 0-24.064-10.752-24.064-24.064V374.784c0-13.312 10.752-24.064 24.064-24.064H634.88c13.312 0 24.064 10.752 24.064 24.064v269.312c0 13.312-10.752 24.064-24.064 24.064zM413.184 369.152c-3.072 0-5.632 2.56-5.632 5.632v269.312c0 3.072 2.56 5.632 5.632 5.632H634.88c3.072 0 5.632-2.56 5.632-5.632V374.784c0-3.072-2.56-5.632-5.632-5.632H413.184z" p-id="7665" fill="#cdcdcd"></path><path d="M634.88 670.72H413.184c-14.848 0-26.624-12.288-26.624-26.624V374.784c0-14.848 11.776-26.624 26.624-26.624H634.88c14.848 0 26.624 12.288 26.624 26.624v269.312c0 14.848-11.776 26.624-26.624 26.624zM413.184 352.768c-11.776 0-21.504 9.728-21.504 21.504v269.312c0 11.776 9.728 21.504 21.504 21.504H634.88c11.776 0 21.504-9.728 21.504-21.504V374.784c0-11.776-9.728-21.504-21.504-21.504H413.184z m221.696 299.52H413.184c-4.608 0-8.192-3.584-8.192-8.192V374.784c0-4.608 3.584-8.192 8.192-8.192H634.88c4.608 0 8.192 3.584 8.192 8.192v269.312c0 4.608-3.584 8.192-8.192 8.192zM413.184 371.712c-1.536 0-3.072 1.536-3.072 3.072v269.312c0 1.536 1.536 3.072 3.072 3.072H634.88c1.536 0 3.072-1.536 3.072-3.072V374.784c0-1.536-1.536-3.072-3.072-3.072H413.184z" p-id="7666" fill="#cdcdcd"></path><path d="M527.872 425.984H448.512c-5.632 0-10.24-4.608-10.24-10.24s4.608-10.24 10.24-10.24h79.36c5.632 0 10.24 4.608 10.24 10.24s-4.608 10.24-10.24 10.24zM504.32 469.504H448.512c-5.632 0-10.24-4.608-10.24-10.24s4.608-10.24 10.24-10.24h55.808c5.632 0 10.24 4.608 10.24 10.24s-4.608 10.24-10.24 10.24z" p-id="7667" fill="#cdcdcd"></path><path d="M471.04 613.376c-2.56 0-5.12-1.024-7.168-2.56-2.56-2.048-3.584-5.12-3.072-8.704l3.584-38.4c0-2.048 1.024-4.096 2.56-6.144L561.664 455.68c7.168-7.68 19.456-8.192 27.136-1.024l21.504 19.968c7.68 7.168 8.192 19.456 1.024 27.136L517.12 603.648c-1.536 1.536-3.584 2.56-5.632 3.072l-38.4 6.144c-1.024 0.512-1.536 0.512-2.048 0.512z m13.312-44.544l-2.048 22.016 22.016-3.584 91.648-98.304-19.968-18.432-91.648 98.304z m91.136-99.328z" p-id="7668" fill="#cdcdcd"></path></svg>