<?xml version="1.0" standalone="no"?><!DOCTYPE svg PUBLIC "-//W3C//DTD SVG 1.1//EN" "http://www.w3.org/Graphics/SVG/1.1/DTD/svg11.dtd"><svg t="1572871839803" class="icon" viewBox="0 0 1024 1024" version="1.1" xmlns="http://www.w3.org/2000/svg" p-id="7827" width="32" height="32" xmlns:xlink="http://www.w3.org/1999/xlink"><defs><style type="text/css"></style></defs><path d="M790.668 382.812c-6 0-10.868-4.877-10.868-10.905V182.466c0-9.032-2.337-15.829-6.963-20.196-7.418-7.01-19.112-6.64-19.242-6.63l-590.903 0.018c-6 0-10.867-4.877-10.867-10.904 0-6.018 4.868-10.905 10.867-10.905h590.255c1.493-0.083 20.622-0.844 34.791 12.546 9.152 8.651 13.788 20.79 13.788 36.07v189.442c0 6.027-4.859 10.905-10.858 10.905z m-75.471-131.609h-421.64c-5.98 0-10.83-4.85-10.83-10.83s4.85-10.831 10.83-10.831h421.64c5.99 0 10.84 4.85 10.84 10.83s-4.85 10.831-10.84 10.831z m0 97.865h-421.64c-5.98 0-10.83-4.85-10.83-10.83a10.826 10.826 0 0 1 10.83-10.831h421.64c5.99 0 10.84 4.84 10.84 10.83 0 5.982-4.85 10.831-10.84 10.831zM484.335 546.753H297.963c-5.981 0-10.83-4.85-10.83-10.84 0-5.982 4.849-10.831 10.83-10.831h186.372c5.99 0 10.84 4.85 10.84 10.83a10.835 10.835 0 0 1-10.84 10.84z m0 88.461H297.963c-5.981 0-10.83-4.85-10.83-10.83s4.849-10.831 10.83-10.831h186.372c5.99 0 10.84 4.85 10.84 10.83s-4.85 10.831-10.84 10.831z m354.412 29.83c-29.44 30.637-69.045 47.968-111.514 48.812l-3.237 0.037c-85.93 0-157.237-69.925-158.952-155.865-0.853-42.469 14.901-82.722 44.333-113.358 29.431-30.628 69.035-47.968 111.514-48.812l3.235-0.028c85.93 0 157.237 69.917 158.952 155.856 0.846 42.47-14.9 82.731-44.331 113.359z m-114.62-247.552l-2.8 0.027c-36.692 0.733-70.9 15.708-96.325 42.163s-39.03 61.237-38.297 97.92c1.484 74.23 63.073 134.622 137.292 134.622l2.801-0.028c36.692-0.733 70.899-15.708 96.325-42.163s39.029-61.228 38.296-97.911c-1.484-74.238-63.073-134.63-137.292-134.63z m-500.81 335.634c-5.981 0-10.83-4.85-10.83-10.83v-529c0-5.99 4.849-10.839 10.83-10.839a10.835 10.835 0 0 1 10.84 10.84v529c0 5.98-4.85 10.829-10.84 10.829z m533.886 137.013h-67.719c-5.981 0-10.83-4.85-10.83-10.84 0-5.98 4.849-10.83 10.83-10.83h67.719c28.625 0 51.908-23.284 51.908-51.909s-23.283-51.908-51.908-51.908h-67.719a10.826 10.826 0 0 1-10.83-10.83c0-5.982 4.849-10.831 10.83-10.831h67.719c40.568 0 73.578 33.002 73.578 73.57 0 40.567-33.01 73.578-73.578 73.578z m-450.895 0H281.94a10.835 10.835 0 0 1-10.84-10.84c0-5.98 4.85-10.83 10.84-10.83h24.37c28.624 0 51.918-23.284 51.918-51.909s-23.294-51.908-51.919-51.908H281.94c-5.99 0-10.84-4.84-10.84-10.83 0-5.982 4.85-10.831 10.84-10.831h24.37c40.567 0 73.578 33.002 73.578 73.57s-33.01 73.578-73.579 73.578z m-82.99-604.181c-5.982 0-10.832-4.85-10.832-10.83v-67.71c0-28.616-23.283-51.899-51.908-51.899s-51.918 23.283-51.918 51.899v67.71c0 5.98-4.85 10.83-10.83 10.83-5.991 0-10.84-4.85-10.84-10.83v-67.71c0-40.559 33.01-73.57 73.587-73.57 40.568 0 73.579 33.011 73.579 73.57v67.71c0.001 5.98-4.848 10.83-10.839 10.83z m-112.915 3.68c-6.935 0-12.554-5.684-12.554-12.693h25.1c0.001 7.01-5.619 12.694-12.546 12.694z m0 10.831c-12.898 0-23.385-10.552-23.385-23.534 0-5.98 4.85-10.83 10.83-10.83 5.991 0 10.84 4.85 10.84 10.83 0 2.068 3.432 2.068 3.432 0 0-5.98 4.849-10.83 10.83-10.83 5.99 0 10.84 4.85 10.84 10.83 0 12.982-10.497 23.534-23.387 23.534z m100.304-10.922c-6.936 0-12.555-5.685-12.555-12.704h25.11c0 7.02-5.62 12.704-12.555 12.704z m0 10.83c-12.889 0-23.386-10.552-23.386-23.534 0-5.981 4.85-10.83 10.84-10.83 5.981 0 10.83 4.849 10.83 10.83 0 2.06 3.432 2.06 3.432 0 0-5.981 4.85-10.83 10.84-10.83 5.98 0 10.83 4.849 10.83 10.83 0 12.982-10.488 23.534-23.386 23.534zM160.54 289.64c-6.936 0-12.555-5.685-12.555-12.694h25.111c0 7.01-5.629 12.694-12.556 12.694z m0 10.83c-12.898 0-23.385-10.552-23.385-23.534 0-5.98 4.85-10.83 10.83-10.83 5.99 0 10.84 4.85 10.84 10.83 0 2.068 3.431 2.068 3.431 0 0-5.98 4.85-10.83 10.831-10.83 5.99 0 10.84 4.85 10.84 10.83-0.001 12.982-10.497 23.534-23.387 23.534z m-37.62-22.81c0-7.057 5.62-12.778 12.556-12.778 6.926 0 12.545 5.721 12.545 12.778h-25.1z m25.102 10.84c-5.98 0-10.83-4.85-10.83-10.84 0-2.142-3.44-2.142-3.44 0 0 5.99-4.85 10.84-10.831 10.84-5.99 0-10.831-4.85-10.831-10.84 0-13.019 10.488-23.609 23.386-23.609 12.89 0 23.385 10.59 23.385 23.609a10.834 10.834 0 0 1-10.839 10.84z m25.11-10.84c0-7.057 5.62-12.778 12.546-12.778 6.936 0 12.555 5.721 12.555 12.778h-25.1z m25.102 10.84a10.835 10.835 0 0 1-10.84-10.84c0-2.142-3.431-2.142-3.431 0 0 5.99-4.85 10.84-10.83 10.84a10.835 10.835 0 0 1-10.84-10.84c0-13.019 10.496-23.609 23.385-23.609 12.899 0 23.386 10.59 23.386 23.609 0 5.99-4.849 10.84-10.83 10.84z m514.57 476.06H288.392c-5.981 0-10.83-4.85-10.83-10.83 0-5.991 4.849-10.84 10.83-10.84h424.411c5.982 0 10.831 4.849 10.831 10.84 0.001 5.98-4.85 10.83-10.83 10.83z m0.11 125.627h-424.41c-5.981 0-10.83-4.85-10.83-10.83s4.849-10.831 10.83-10.831h424.41c5.991 0 10.84 4.85 10.84 10.83s-4.849 10.831-10.84 10.831z m-419.542-0.074h-32.474c-0.204 0.018-0.751 0.046-1.567 0.046-5.109 0-20.956-1.048-33.122-12.51-9.134-8.595-13.76-20.65-13.76-35.83V617.485c0-5.98 4.85-10.83 10.83-10.83 5.99 0 10.84 4.85 10.84 10.83V841.82c0 8.967 2.328 15.717 6.945 20.057 7.4 6.972 19.093 6.593 19.185 6.593l33.123-0.019c5.98 0 10.83 4.85 10.83 10.831s-4.85 10.83-10.83 10.83z m628.968-655.07c-4.516-32.502-38.973-37.008-38.973-37.008 33.855-1.511 38.824-42.431 38.824-42.431 0.751 32.798 39.418 40.772 39.418 40.772-32.501-0.603-39.27 38.666-39.27 38.666zM101.363 759.83c-4.516-32.5-38.973-37.017-38.973-37.017 33.854-1.502 38.824-42.422 38.824-42.422 0.751 32.797 39.419 40.772 39.419 40.772-32.501-0.603-39.27 38.667-39.27 38.667zM877.84 325.311c-3.329-23.997-28.782-27.335-28.782-27.335 25.008-1.113 28.67-31.342 28.67-31.342 0.557 24.23 29.126 30.118 29.126 30.118-24.006-0.446-29.014 28.56-29.014 28.56zM142.942 853.41c-3.338-24.007-28.792-27.336-28.792-27.336 25.008-1.112 28.68-31.342 28.68-31.342 0.557 24.23 29.116 30.118 29.116 30.118-24.007-0.445-29.004 28.56-29.004 28.56zM737.127 477.7l0.116 105.437c-0.015 5.915-4.814 10.778-10.717 10.86a10.513 10.513 0 0 1-7.239-2.737 10.53 10.53 0 0 1-3.443-7.832l-0.116-105.439c0.01-5.92 4.814-10.775 10.717-10.859 5.918-0.08 10.684 4.656 10.682 10.57z m-252.792-24.917H297.963c-5.981 0-10.83-4.85-10.83-10.83s4.849-10.831 10.83-10.831h186.372c5.99 0 10.84 4.85 10.84 10.83s-4.85 10.831-10.84 10.831z" fill="#cdcdcd" p-id="7828"></path><path d="M738.621 621.067l-0.035 0.088c-0.019 6.862-5.585 12.504-12.435 12.599a12.194 12.194 0 0 1-8.398-3.174 12.213 12.213 0 0 1-3.995-9.087l0.037-0.09c0.01-6.869 5.585-12.502 12.434-12.598 6.864-0.096 12.395 5.4 12.392 12.262z" fill="#cdcdcd" p-id="7829"></path></svg>