<?xml version="1.0" standalone="no"?><!DOCTYPE svg PUBLIC "-//W3C//DTD SVG 1.1//EN" "http://www.w3.org/Graphics/SVG/1.1/DTD/svg11.dtd"><svg t="1571281521396" class="icon" viewBox="0 0 1024 1024" version="1.1" xmlns="http://www.w3.org/2000/svg" p-id="4459" width="30" height="30" xmlns:xlink="http://www.w3.org/1999/xlink"><defs><style type="text/css"></style></defs><path d="M508.491 344.504c-79.695 0-144.466 65.66-144.466 146.431 0 80.77 64.83 146.489 144.466 146.489 7.973 0 16.176-0.831 25.814-2.619 11.241-2.078 18.673-12.964 16.654-24.325-2.082-11.417-12.787-19.030-24.031-16.89-7.133 1.307-13.023 1.901-18.437 1.901-56.857 0-103.132-46.924-103.132-104.556 0-57.634 46.275-104.558 103.132-104.558 56.921 0 103.133 46.924 103.133 104.558 0 5.531-0.595 11.422-1.902 18.677-2.082 11.358 5.408 22.302 16.594 24.385 11.241 2.078 22.004-5.473 24.028-16.834 1.724-9.751 2.559-18.079 2.559-26.17 0.059-80.829-64.771-146.487-144.412-146.487v0zM934.636 408.499c-1.542-8.145-7.673-14.629-15.642-16.531-45.322-10.586-82.967-38.72-106.045-79.223-23.078-40.503-28.251-87.549-14.688-132.573 2.378-7.909-0.064-16.534-6.247-21.95-41.574-36.397-88.975-64.172-141.018-82.549-7.731-2.735-16.294-0.599-21.885 5.468-31.7 34.5-74.526 53.412-120.62 53.412-46.093 0-88.916-18.975-120.557-53.353-5.589-6.062-14.217-8.205-21.949-5.468-51.979 18.318-99.443 46.093-141.018 82.549-6.185 5.413-8.622 14.039-6.243 21.95 13.559 44.963 8.326 92.069-14.692 132.513-23.075 40.562-60.724 68.697-106.045 79.223-7.969 1.842-14.154 8.326-15.642 16.531-5.232 27.838-7.851 55.613-7.851 82.436 0 26.821 2.619 54.597 7.851 82.434 1.548 8.145 7.673 14.629 15.642 16.473 45.322 10.586 82.971 38.72 106.045 79.223 23.020 40.503 28.251 87.549 14.692 132.573-2.378 7.909 0.059 16.535 6.243 21.95 41.574 36.397 88.979 64.171 141.018 82.549 2.201 0.777 4.524 1.189 6.784 1.189 5.649 0 11.121-2.319 15.105-6.661 31.7-34.372 74.523-53.348 120.615-53.348 46.094 0 88.921 18.913 120.562 53.348 5.589 6.067 14.153 8.209 21.884 5.532 51.983-18.318 99.385-46.094 141.018-82.549 6.185-5.414 8.626-14.039 6.243-21.95-13.559-44.963-8.326-92.069 14.752-132.573 23.078-40.503 60.724-68.637 106.045-79.223 7.969-1.842 14.099-8.326 15.642-16.473 5.237-27.898 7.851-55.674 7.851-82.436 0.001-26.823-2.613-54.598-7.851-82.495v0zM896.275 552.728c-50.078 15.347-92.959 49.547-119.133 95.459-26.111 45.857-33.902 100.578-22.062 152.143-31.882 26.111-67.33 46.866-105.632 61.794-38.361-36.698-87.904-56.681-140.958-56.681-52.22 0-102.832 20.519-140.958 56.679-38.303-14.93-73.751-35.684-105.569-61.794 12.133-52.042 4.461-105.573-22.066-152.143-26.227-45.913-69.109-80.113-119.191-95.459-3.271-20.933-4.937-41.633-4.937-61.735 0-20.101 1.666-40.86 4.937-61.793 50.019-15.347 92.905-49.547 119.072-95.459 26.111-45.857 33.902-100.578 22.066-152.143 31.878-26.17 67.267-46.866 105.628-61.854 38.125 36.22 88.797 56.74 141.017 56.74 53.055 0 102.597-20.043 141.018-56.679 38.365 14.929 73.809 35.684 105.632 61.794-11.84 51.565-4.108 106.285 22.003 152.143 26.173 45.913 69.054 80.113 119.133 95.459 3.271 20.995 4.937 41.692 4.937 61.793 0 20.043-1.666 40.745-4.937 61.735v0zM896.275 552.728z" p-id="4460" fill="#cdcdcd"></path></svg>