<?xml version="1.0" standalone="no"?><!DOCTYPE svg PUBLIC "-//W3C//DTD SVG 1.1//EN" "http://www.w3.org/Graphics/SVG/1.1/DTD/svg11.dtd"><svg t="1571306675253" class="icon" viewBox="0 0 1024 1024" version="1.1" xmlns="http://www.w3.org/2000/svg" p-id="23382" width="30" height="30" xmlns:xlink="http://www.w3.org/1999/xlink"><defs><style type="text/css"></style></defs><path d="M799.36 921.6H224.64a122.24 122.24 0 0 1-122.24-122.24V224.576c0-67.392 54.784-122.24 122.24-122.24h418.24a22.016 22.016 0 1 1 0 44.032H224.64c-43.2 0-78.272 35.072-78.272 78.208v574.784c0 43.136 35.072 78.272 78.272 78.272h574.72c43.136 0 78.272-35.136 78.272-78.272V369.792a21.952 21.952 0 1 1 44.032 0v429.568a122.432 122.432 0 0 1-122.304 122.24" fill="#cdcdcd" p-id="23383"></path><path d="M449.92 574.08a22.016 22.016 0 0 1 0-31.104L884.032 108.8a22.016 22.016 0 0 1 31.104 31.168L481.024 574.08a21.76 21.76 0 0 1-15.552 6.4 21.76 21.76 0 0 1-15.552-6.4" fill="#cdcdcd" p-id="23384"></path></svg>