<?xml version="1.0" standalone="no"?><!DOCTYPE svg PUBLIC "-//W3C//DTD SVG 1.1//EN" "http://www.w3.org/Graphics/SVG/1.1/DTD/svg11.dtd"><svg t="1571206632801" class="icon" viewBox="0 0 1024 1024" version="1.1" xmlns="http://www.w3.org/2000/svg" p-id="1687" xmlns:xlink="http://www.w3.org/1999/xlink" width="64" height="64"><defs><style type="text/css"></style></defs><path d="M512 0C229.18227 0 0 229.209946 0 512 0 794.81773 229.18227 1024 512 1024S1024 794.81773 1024 512C1024 229.209946 794.790054 0 512 0L512 0zM828.803459 828.803459l-127.335784-127.335784c-32.795676 32.823351-73.977081 57.094919-120.084757 69.410595l46.605838 173.996973c-37.583568 10.101622-76.412541 15.110919-115.988757 15.110919s-78.405189-5.12-115.988757-15.110919l46.605838-173.996973c-46.107676-12.288-87.289081-36.587243-120.112432-69.410595l-127.308108 127.335784 0 0c-41.181405-41.209081-73.478919-89.115676-96.006919-142.419027-8.081297-19.096216-14.778811-38.635243-20.092541-58.395676l173.996973-46.605838c-5.922595-22.112865-9.105297-45.415784-9.105297-69.299892 0-24.022486 3.182703-47.214703 9.105297-69.410595l-173.996973-46.716541c5.286054-19.788108 12.011243-39.299459 20.092541-58.395676 22.611027-53.303351 54.908541-101.292973 96.006919-142.391351l0 0 127.308108 127.308108c32.823351-32.795676 74.004757-57.094919 120.112432-69.410595l-46.605838-173.996973c37.583568-9.990919 76.412541-15.110919 115.988757-15.110919s78.405189 5.12 115.988757 15.110919l-46.605838 173.996973c46.107676 12.315676 87.289081 36.614919 120.084757 69.410595l127.335784-127.308108 0 0c41.181405 41.209081 73.478919 89.088 96.006919 142.391351 8.081297 19.096216 14.778811 38.607568 20.092541 58.395676l-173.996973 46.605838c5.922595 22.112865 9.105297 45.415784 9.105297 69.410595s-3.182703 47.187027-9.105297 69.410595l173.996973 46.605838c-5.286054 19.788108-12.011243 39.299459-20.092541 58.395676C902.282378 739.715459 869.874162 787.594378 828.803459 828.803459L828.803459 828.803459 828.803459 828.803459zM828.803459 828.803459M654.252973 661.670054l-114.411243-61.910486c-36.504216 38.967351-120.167784 61.910486-218.167351 61.910486l0-45.913946c55.794162-2.463135 125.481514-10.682811 153.350919-36.089081l-153.766054 0 0-39.797622 166.08173 0 0-13.533405 72.150486 0 0 13.533405 171.008 0 0 39.797622-127.529514 0 106.219243 50.037622 21.725405 0-15.581405 31.965405L654.252973 661.670054zM475.883243 525.948541l-70.932757 0 0-30.747676-83.248432 20.092541L321.702054 467.718919l83.248432-20.092541 0-25.40627-83.248432 0 0-39.769946 83.248432 0 0-27.066811 70.932757 0L475.883243 525.948541zM582.905081 355.383351l-65.619027 0-21.337946 53.303351-9.824865 0 9.824865 31.965405 34.871351 0 23.773405 33.625946c-19.677405 1.632865-40.600216 1.632865-62.740757 1.632865l0 45.526486c135.693838 3.293405 223.065946-22.555676 235.353946-146.376649L574.27027 375.060757 582.905081 355.383351zM661.642378 408.686703c-10.267676 27.869405-28.284541 44.281081-50.867892 53.718486l-23.773405-31.993081-37.306811 0 9.437405-21.725405L661.642378 408.686703z" p-id="1688" fill="#ffbf02"></path></svg>