<?xml version="1.0" standalone="no"?><!DOCTYPE svg PUBLIC "-//W3C//DTD SVG 1.1//EN" "http://www.w3.org/Graphics/SVG/1.1/DTD/svg11.dtd"><svg t="1571381653058" class="icon" viewBox="0 0 1024 1024" version="1.1" xmlns="http://www.w3.org/2000/svg" p-id="25888" width="20" height="20" xmlns:xlink="http://www.w3.org/1999/xlink"><defs><style type="text/css"></style></defs><path d="M292.4 482.4c7.8-7.8 20.4-7.8 28.2 0l29.6 29.6 30.9-30.9 367.4-367.4c7.8-7.8 7.8-20.4 0-28.2l-15.6-15.6c-7.8-7.8-20.4-7.8-28.2 0L276.8 497.7c-3.9 3.9-5.9 9.1-5.8 14.2 0-5.1 2-10.1 5.8-14l15.6-15.5z" fill="#cdcdcd" p-id="25889"></path><path d="M320.5 482.4c-7.8-7.8-20.4-7.8-28.2 0L276.7 498c-3.9 3.9-5.8 8.9-5.8 14s1.9 10.3 5.8 14.2l428 428c7.8 7.8 20.4 7.8 28.2 0l15.6-15.6c7.8-7.8 7.8-20.4 0-28.2L381.2 543l-31.1-31.1-29.6-29.5z" fill="#cdcdcd" p-id="25890"></path></svg>